<?xml version="1.0" standalone="no"?>
<!DOCTYPE svg PUBLIC "-//W3C//DTD SVG 20010904//EN"
 "http://www.w3.org/TR/2001/REC-SVG-20010904/DTD/svg10.dtd">
<svg version="1.0" xmlns="http://www.w3.org/2000/svg"
 width="500.000000pt" height="500.000000pt" viewBox="0 0 500.000000 500.000000"
 preserveAspectRatio="xMidYMid meet">

<g transform="translate(0.000000,500.000000) scale(0.100000,-0.100000)"
fill="#000000" stroke="none">
<path d="M1520 2715 l0 -165 35 0 35 0 0 49 c0 31 5 53 15 61 19 16 17 18 45
-52 l24 -58 43 0 c24 0 43 2 43 4 0 2 -20 47 -45 101 l-46 98 41 58 c22 31 40
60 40 63 0 3 -20 6 -44 6 -43 0 -46 -2 -73 -50 -15 -27 -31 -50 -35 -50 -5 0
-8 23 -8 50 l0 50 -35 0 -35 0 0 -165z"/>
<path d="M2870 2810 c0 -20 -5 -30 -15 -30 -10 0 -15 -11 -15 -35 0 -23 5 -35
14 -35 10 0 15 -18 18 -60 5 -77 25 -100 85 -100 41 0 43 1 43 29 0 23 -5 30
-22 33 -20 3 -23 10 -26 51 -3 45 -2 47 22 47 23 0 26 4 26 35 0 31 -3 35 -25
35 -21 0 -25 5 -25 30 0 28 -2 30 -40 30 -38 0 -40 -2 -40 -30z"/>
<path d="M1790 2625 l0 -155 40 0 40 0 0 52 c0 40 3 49 12 40 20 -20 83 -15
104 9 15 17 19 36 19 96 0 67 -3 77 -24 94 -29 23 -78 25 -103 2 -17 -15 -18
-15 -18 0 0 13 -9 17 -35 17 l-35 0 0 -155z m135 40 c0 -47 -2 -50 -25 -50
-22 0 -25 5 -28 44 -3 45 9 64 38 58 11 -2 15 -16 15 -52z"/>
<path d="M2085 2768 c-35 -20 -44 -42 -45 -106 0 -54 4 -66 25 -87 19 -20 34
-25 75 -25 44 0 56 5 81 29 25 26 29 37 29 86 0 49 -4 60 -29 86 -24 23 -38
29 -73 29 -24 0 -52 -6 -63 -12z m85 -74 c12 -30 3 -73 -16 -81 -23 -8 -44 17
-44 51 0 55 43 77 60 30z"/>
<path d="M2289 2776 c-2 -2 -3 -72 -1 -155 l3 -151 35 0 c34 0 34 0 34 45 l0
44 49 -6 c41 -5 52 -2 70 16 18 18 21 33 21 94 0 60 -4 77 -20 95 -23 24 -68
29 -103 11 -16 -9 -22 -9 -25 0 -3 10 -54 16 -63 7z m130 -70 c17 -20 10 -77
-11 -89 -24 -16 -48 8 -48 47 0 49 34 73 59 42z"/>
<path d="M2646 2759 c-52 -41 -28 -107 42 -116 46 -6 61 -18 43 -36 -9 -9 -16
-8 -31 1 -11 6 -33 12 -50 12 -36 0 -40 -20 -10 -50 27 -27 118 -28 148 -2 54
45 29 107 -47 120 -47 8 -63 25 -34 36 11 4 22 1 29 -8 6 -9 25 -16 43 -16 24
0 31 4 31 20 0 57 -108 83 -164 39z"/>
<path d="M3065 2755 c-14 -13 -25 -31 -25 -40 0 -21 58 -20 82 2 15 13 21 14
31 4 15 -15 -2 -27 -54 -35 -63 -10 -87 -75 -47 -123 13 -16 90 -17 105 -2 8
8 13 8 17 0 4 -6 20 -11 37 -11 l29 0 0 94 c0 90 -1 96 -26 115 -39 31 -117
29 -149 -4z m95 -120 c0 -20 -5 -25 -25 -25 -44 0 -27 37 23 49 1 1 2 -10 2
-24z"/>
<path d="M3270 2770 c0 -5 16 -53 36 -107 36 -96 37 -97 21 -145 l-15 -48 44
0 43 0 16 52 c8 28 31 94 50 145 19 51 35 98 35 103 0 6 -18 10 -39 10 -39 0
-39 0 -51 -52 -20 -85 -26 -86 -45 -14 l-18 66 -38 0 c-22 0 -39 -4 -39 -10z"/>
</g>
</svg>
