<?xml version="1.0" standalone="no"?>
<!DOCTYPE svg PUBLIC "-//W3C//DTD SVG 20010904//EN"
 "http://www.w3.org/TR/2001/REC-SVG-20010904/DTD/svg10.dtd">
<svg version="1.0" xmlns="http://www.w3.org/2000/svg"
 width="500.000000pt" height="500.000000pt" viewBox="0 0 500.000000 500.000000"
 preserveAspectRatio="xMidYMid meet">

<g transform="translate(0.000000,500.000000) scale(0.100000,-0.100000)"
fill="#000000" stroke="none">
<path d="M1870 3315 c0 -50 4 -85 10 -85 6 0 10 33 10 80 l0 80 695 0 695 0 0
-890 0 -890 -695 0 -695 0 0 250 c0 160 -4 250 -10 250 -6 0 -10 -93 -10 -260
l0 -260 713 2 712 3 3 903 2 902 -715 0 -715 0 0 -85z"/>
<path d="M1525 3055 c11 -8 26 -19 33 -25 18 -16 18 -694 0 -710 -7 -6 -22
-17 -33 -25 -18 -13 -3 -14 130 -14 133 0 148 1 130 14 -11 8 -26 19 -32 25
-10 8 -13 92 -13 355 0 263 3 347 13 355 6 6 21 17 32 25 18 13 3 14 -130 14
-133 0 -148 -1 -130 -14z"/>
<path d="M2037 3058 c12 -6 24 -17 28 -25 7 -20 -162 -194 -181 -186 -9 3 -14
-2 -14 -14 0 -10 -27 -45 -60 -78 -33 -33 -60 -63 -60 -68 0 -5 52 -83 115
-172 63 -90 118 -171 121 -180 5 -12 -1 -24 -17 -36 -24 -18 -24 -19 69 -19
l92 0 0 -116 c0 -125 -6 -146 -48 -168 -25 -14 -14 -15 136 -16 89 0 162 2
162 5 0 3 -16 11 -35 19 -43 18 -47 33 -43 171 l3 110 95 6 c175 12 263 76
285 207 18 108 -49 213 -157 248 -65 21 -476 34 -464 15 4 -6 14 -11 21 -11 8
0 22 -11 30 -24 13 -19 15 -51 13 -172 l-3 -149 -117 170 c-73 106 -118 180
-118 195 0 36 204 251 260 274 22 9 40 18 40 21 0 3 -39 5 -87 4 -70 0 -83 -3
-66 -11z m412 -336 c47 -35 65 -78 69 -171 5 -102 -9 -160 -47 -203 -26 -29
-35 -33 -100 -36 l-71 -4 0 222 0 223 62 -6 c37 -3 71 -13 87 -25z"/>
<path d="M2946 2997 c-14 -14 -26 -31 -26 -37 0 -5 9 -1 20 10 14 14 33 20 65
20 77 0 111 -58 59 -99 -32 -25 -64 -27 -104 -6 -24 12 -28 13 -24 1 7 -18 48
-36 83 -36 46 0 76 31 76 79 0 52 -27 81 -83 88 -34 5 -44 1 -66 -20z"/>
<path d="M2920 2800 c0 -5 20 -10 44 -10 41 0 45 -2 49 -27 l4 -28 2 29 c1 26
3 28 36 24 24 -3 35 0 35 9 0 10 -22 13 -85 13 -50 0 -85 -4 -85 -10z"/>
<path d="M3081 2724 c0 -11 3 -14 6 -6 3 7 2 16 -1 19 -3 4 -6 -2 -5 -13z"/>
<path d="M2920 2670 c0 -5 20 -10 44 -10 41 0 45 -2 49 -27 l4 -28 2 29 c1 26
3 28 36 24 24 -3 35 0 35 9 0 10 -22 13 -85 13 -50 0 -85 -4 -85 -10z"/>
<path d="M3081 2594 c0 -11 3 -14 6 -6 3 7 2 16 -1 19 -3 4 -6 -2 -5 -13z"/>
<path d="M2920 2540 c0 -6 35 -10 85 -10 50 0 85 4 85 10 0 6 -35 10 -85 10
-50 0 -85 -4 -85 -10z"/>
<path d="M2949 2471 c-16 -16 -29 -38 -28 -48 0 -14 2 -14 6 -3 13 35 37 50
80 50 31 0 49 -6 65 -22 17 -17 20 -18 15 -4 -4 10 -7 19 -7 22 0 8 -60 34
-80 34 -12 0 -35 -13 -51 -29z"/>
<path d="M3086 2389 c-8 -42 0 -50 9 -9 4 17 5 34 2 36 -2 3 -7 -10 -11 -27z"/>
<path d="M2920 2300 c0 -6 35 -10 85 -10 50 0 85 4 85 10 0 6 -35 10 -85 10
-50 0 -85 -4 -85 -10z"/>
<path d="M2943 2244 c22 -12 27 -21 27 -55 0 -33 -4 -41 -25 -49 -14 -5 -25
-14 -25 -20 0 -14 2 -14 96 27 63 27 81 39 68 44 -11 3 -32 -2 -49 -13 -45
-27 -55 -23 -55 20 0 32 -5 41 -25 50 -37 17 -45 14 -12 -4z"/>
<path d="M3000 2220 c8 -5 20 -10 25 -10 6 0 3 5 -5 10 -8 5 -19 10 -25 10 -5
0 -3 -5 5 -10z"/>
<path d="M2922 2023 c1 -44 2 -45 5 -10 l4 37 80 0 c46 0 79 4 79 10 0 6 -35
10 -85 10 l-85 0 2 -47z"/>
</g>
</svg>
